<svg fill="none" height="32" width="32" xmlns="http://www.w3.org/2000/svg"><path d="M12 31.5a.5.5 0 01-1 0v-1.634l-1.415.817a.5.5 0 01-.5-.866L10.5 29l-1.415-.817a.5.5 0 01.5-.866l1.415.817V26.5a.5.5 0 111 0v1.634l1.415-.817a.5.5 0 11.5.866L12.5 29l1.415.817a.5.5 0 01-.5.866L12 29.866zM21 31.5a.5.5 0 01-1 0v-1.634l-1.415.817a.5.5 0 01-.5-.866L19.5 29l-1.415-.817a.5.5 0 01.5-.866l1.415.817V26.5a.5.5 0 111 0v1.634l1.415-.817a.5.5 0 11.5.866L21.5 29l1.415.817a.5.5 0 01-.5.866L21 29.866z" fill="#9cd0ff"/><path d="M23.945 12a9.001 9.001 0 00-17.492-1.829A7 7 0 008 24h17a6 6 0 000-12z" fill="#dae1ec"/></svg>