<svg fill="none" height="32" width="32" xmlns="http://www.w3.org/2000/svg"><path d="M26.533 21.027l-1.652-.956 1.393-.687a.893.893 0 00-.795-1.598L23.024 19l-3.572-2.063a3.197 3.197 0 000-1.892l3.572-2.063 2.455 1.232a.893.893 0 00.795-1.598l-1.393-.687 1.652-.956a.893.893 0 00-.893-1.544l-1.652.946.08-1.518a.894.894 0 10-1.785-.116l-.179 2.732-3.571 2.054a3.571 3.571 0 00-1.608-.973V8.446l2.277-1.517a.892.892 0 10-.99-1.483l-1.287.849V4.393a.893.893 0 10-1.785 0v1.902l-1.295-.893a.894.894 0 10-.991 1.482l2.286 1.562v4.116a3.572 3.572 0 00-1.652.947l-3.571-2.054-.134-2.74a.896.896 0 10-1.786.142l.08 1.518-1.652-.955a.893.893 0 00-.892 1.544l1.651.956-1.392.687a.896.896 0 00.794 1.607L9.042 13l3.57 2.063a3.197 3.197 0 000 1.892l-3.57 2.063-2.456-1.232a.892.892 0 10-.794 1.598l1.392.687-1.651.956a.893.893 0 10.892 1.544l1.652-.946-.08 1.518a.893.893 0 00.83.946h.063a.893.893 0 00.893-.839l.178-2.732 3.572-2.054a3.57 3.57 0 001.607.982v4.117l-2.277 1.517a.892.892 0 00.991 1.483l1.295-.893v1.937a.893.893 0 101.785 0v-1.902l1.295.893a.894.894 0 10.991-1.482l-2.295-1.562v-4.108a3.571 3.571 0 001.652-.946l3.572 2.054.178 2.732a.893.893 0 00.893.839h.063a.893.893 0 00.785-.982l-.098-1.545 1.652.956a.893.893 0 00.893-1.545zm-10.5-3.241a1.786 1.786 0 110-3.572 1.786 1.786 0 010 3.572z" fill="#b4b9d1" stroke="#b4b9d1" stroke-width=".1"/></svg>